<?xml version="1.0" standalone="no"?><!DOCTYPE svg PUBLIC "-//W3C//DTD SVG 1.1//EN" "http://www.w3.org/Graphics/SVG/1.1/DTD/svg11.dtd"><svg t="1557107034193" class="icon" style="" viewBox="0 0 1024 1024" version="1.1" xmlns="http://www.w3.org/2000/svg" p-id="1116" xmlns:xlink="http://www.w3.org/1999/xlink" width="64" height="64"><defs><style type="text/css"></style></defs><path d="M511.889995 128.745223c-201.852264 0-365.490182 163.637917-365.490182 365.490182 0 201.851241 163.637917 365.490182 365.490182 365.490182 201.851241 0 365.489158-163.637917 365.489158-365.490182C877.379153 292.382117 713.741235 128.745223 511.889995 128.745223L511.889995 128.745223zM688.519808 626.689089l-44.187385 44.175105L511.889995 538.409486 379.447567 670.864194l-44.187385-44.175105 132.442428-132.454708L335.260182 361.791953l44.151569-44.187385 132.465964 132.454708 132.454708-132.454708 44.187385 44.187385L556.0651 494.246661 688.519808 626.689089 688.519808 626.689089zM688.519808 626.689089" p-id="1117" fill="#d81e06"></path></svg>