<?xml version="1.0" encoding="UTF-8"?>
<svg width="17px" height="16px" viewBox="0 0 17 16" version="1.1" xmlns="http://www.w3.org/2000/svg" xmlns:xlink="http://www.w3.org/1999/xlink">
    <!-- Generator: Sketch 51.3 (57544) - http://www.bohemiancoding.com/sketch -->
    <title>Shape</title>
    <desc>Created with Sketch.</desc>
    <defs></defs>
    <g id="page" stroke="none" stroke-width="1" fill="none" fill-rule="evenodd">
        <g id="首页" transform="translate(-1051.000000, -22.000000)" fill="#E13C43" fill-rule="nonzero">
            <g id="顶部">
                <g id="告警的消火栓数量" transform="translate(1051.000000, 22.000000)">
                    <path d="M12.1501088,8.5834504 C12.1501088,6.32119526 10.3726226,4.48771265 8.17916307,4.48771265 C5.98570352,4.48771265 4.20821733,6.32119526 4.20821733,8.5834504 L4.20821733,13.2295529 L12.1501088,13.2295529 L12.1501088,8.5834504 Z M13.6828107,7.71150623 C13.428427,7.71470603 13.2156406,7.52111843 13.1948419,7.26833461 C13.1740432,7.0155508 13.350032,6.78836534 13.6012159,6.7499678 L15.6154869,6.38999085 C15.7418788,6.36759229 15.8698706,6.39799034 15.9754639,6.47158563 C16.0794572,6.54518091 16.1498527,6.65717374 16.1722513,6.78356565 C16.2202482,7.04594885 16.0458594,7.29713277 15.7834762,7.34512969 L13.7692051,7.70510664 C13.7388071,7.70830644 13.7116088,7.71150623 13.6828107,7.71150623 Z M11.772533,4.36132075 C11.6589403,4.36132075 11.5501472,4.32132331 11.4653527,4.24772802 C11.2621657,4.07493908 11.2365673,3.77095855 11.4061564,3.56457176 L12.7212722,1.97907328 C12.802867,1.88147953 12.9196595,1.81908352 13.0460514,1.80788424 C13.1724434,1.79668496 13.2988353,1.8366824 13.396429,1.91827717 C13.599616,2.08946621 13.6268143,2.39664654 13.4572251,2.60143343 L12.1389095,4.18853181 C12.0477154,4.29892474 11.913324,4.36292064 11.772533,4.36132075 Z M2.67711536,7.71150623 C2.64831721,7.71150623 2.61951905,7.70830644 2.59232079,7.70350675 L0.576449869,7.3435298 C0.315666567,7.29553287 0.141277733,7.04594885 0.187674762,6.78356565 C0.20847343,6.65717374 0.278868923,6.54518091 0.382862264,6.46998573 C0.486855606,6.39639044 0.616447308,6.36599239 0.742839215,6.38839095 L2.75711024,6.7483679 C3.00829416,6.78836534 3.18588279,7.0139509 3.16348422,7.26673471 C3.14268555,7.52111843 2.92989918,7.71470603 2.67711536,7.71150623 Z M4.58579315,4.36132075 C4.44340227,4.36132075 4.30901087,4.29732484 4.21941661,4.18853181 L2.90430082,2.60463323 C2.73311178,2.39984634 2.76031004,2.0942659 2.96349703,1.92147697 C3.06109078,1.8382823 3.18588279,1.79828486 3.31387459,1.80948414 C3.4402665,1.82068342 3.55865892,1.88307943 3.6386538,1.98067318 L4.95376959,3.56457176 C5.12335873,3.76935865 5.09776037,4.07493908 4.89457338,4.24772802 C4.80817891,4.32132331 4.69938588,4.36132075 4.58579315,4.36132075 Z M8.17916307,3.03980536 C8.05117127,3.03980536 7.92797915,2.98860864 7.83838489,2.89741448 C7.74879063,2.80622032 7.6975939,2.68302821 7.6991938,2.5550364 L7.6991938,0.48476896 C7.6991938,0.219185966 7.91517997,0 8.17916307,0 C8.44314617,0 8.65913234,0.217586068 8.65913234,0.48476896 L8.65913234,2.5534365 C8.65913234,2.68142831 8.60953551,2.80462042 8.51994125,2.89581458 C8.43034699,2.98860864 8.30715487,3.03980536 8.17916307,3.03980536 Z M13.7260079,15.0998332 C13.7260079,15.5974013 13.3276334,15.9989756 12.8364649,15.9989756 L3.52346117,15.9989756 C3.28667633,15.9973757 3.05949088,15.9013818 2.89150164,15.7333926 C2.72511229,15.5654034 2.63231823,15.336618 2.63231823,15.0998332 C2.63231823,14.602265 3.03069272,14.1990908 3.52186128,14.1990908 L12.834865,14.1990908 C13.3276334,14.2006907 13.7260079,14.602265 13.7260079,15.0998332 Z" id="Shape"></path>
                </g>
            </g>
        </g>
    </g>
</svg>