<?xml version="1.0" encoding="UTF-8"?>
<svg width="16px" height="16px" viewBox="0 0 16 16" version="1.1" xmlns="http://www.w3.org/2000/svg" xmlns:xlink="http://www.w3.org/1999/xlink">
    <!-- Generator: Sketch 51.3 (57544) - http://www.bohemiancoding.com/sketch -->
    <title>Shape</title>
    <desc>Created with Sketch.</desc>
    <defs></defs>
    <g id="page" stroke="none" stroke-width="1" fill="none" fill-rule="evenodd">
        <g id="首页" transform="translate(-1173.000000, -22.000000)" fill="#879BAA" fill-rule="nonzero">
            <g id="顶部">
                <g id="个人中心" transform="translate(1173.000000, 22.000000)">
                    <path d="M6.37054575,15.8339343 C2.73364625,15.0813617 0,11.8599195 0,8 C0,3.581722 3.581722,0 8,0 C12.418278,0 16,3.581722 16,8 C16,10.203288 15.1093062,12.1985435 13.6683455,13.6453397 C13.6659947,13.6477952 13.6636405,13.6501638 13.661318,13.652387 C12.5814452,14.7339555 11.1936075,15.507952 9.640553,15.8316293 C9.11099525,15.941986 8.562238,16 7.999931,16 C7.441595,16 6.89661825,15.9428025 6.37054075,15.8339472 L6.37054575,15.8339343 Z M13.5541812,13.0400287 C14.763222,11.7084462 15.5,9.940265 15.5,8 C15.5,3.8578645 12.1421355,0.5 8,0.5 C3.8578645,0.5 0.5,3.8578645 0.5,8 C0.5,9.942493 1.238471,11.7125067 2.44998575,13.0446143 C3.302935,10.6735485 6.265311,10.0442397 7.999768,10.0442397 C9.737378,10.0442397 12.7073762,10.6604337 13.5541812,13.0400287 Z M8.0013055,1.97365525 C10.0638642,1.97365525 11.7530285,3.64503925 11.7530285,5.7253785 C11.7530285,7.78793725 10.0816448,9.47710175 8.0013055,9.47710175 C5.920966,9.47710175 4.24958225,7.805718 4.24958225,5.7253785 C4.24958225,3.66281975 5.93874675,1.97365525 8.0013055,1.97365525 Z" id="Shape"></path>
                </g>
            </g>
        </g>
    </g>
</svg>