<?xml version="1.0" encoding="UTF-8"?>
<svg width="16px" height="16px" viewBox="0 0 16 16" version="1.1" xmlns="http://www.w3.org/2000/svg" xmlns:xlink="http://www.w3.org/1999/xlink">
    <!-- Generator: Sketch 51.3 (57544) - http://www.bohemiancoding.com/sketch -->
    <title>Shape</title>
    <desc>Created with Sketch.</desc>
    <defs></defs>
    <g id="page" stroke="none" stroke-width="1" fill="none" fill-rule="evenodd">
        <g id="首页" transform="translate(-1090.000000, -22.000000)" fill="#879BAA" fill-rule="nonzero">
            <g id="顶部">
                <g id="中英文切换" transform="translate(1090.000000, 20.000000)">
                    <path d="M7.99921883,2.00312652 C3.58090031,2.00312652 0,5.58127138 0,9.99608909 C0,14.0731099 3.05595157,17.4385678 7.00400351,17.9280605 C7.22585685,17.9749768 7.4977053,18.0031265 7.82111123,18.0031265 C7.91172737,18.0031265 7.99921883,17.9984349 8.0835856,17.9890516 C12.4628454,17.9436993 16,14.3827571 16,9.99608909 C16,5.58127138 12.4175373,2.00312652 7.99921883,2.00312652 Z M6.73840445,17.2149338 C3.29655307,16.6128421 0.678058784,13.6117669 0.678058784,9.99921684 C0.678058784,9.48157437 0.732740947,8.97644291 0.834293534,8.48851407 C1.15145007,8.82631096 1.89668978,8.81849159 2.07792207,8.31336013 C2.40289034,8.50728056 2.84190997,8.54168581 2.84190997,8.93109055 C2.84190997,10.2103399 2.88721805,11.5834217 4.05116687,11.6037521 C4.08397617,11.6037521 4.69954105,11.8367694 4.99170003,12.5968124 C5.09325261,12.8595433 5.49321355,12.5968124 5.93379552,12.5968124 C6.15408652,12.5968124 5.93379552,12.9674506 5.93379552,13.7665905 C5.93379552,14.5626026 7.65081535,15.7886802 7.65081535,15.7886802 C7.64300361,16.3157059 7.66487648,16.7410798 7.70862221,17.0820044 C7.32116004,17.0757489 6.99462945,17.1273568 6.73840445,17.2149338 Z M9.81466653,17.1007709 C9.77717019,16.9146699 9.60999901,16.813018 9.30690363,16.8927756 C9.54906747,15.8621823 9.66624354,15.2851126 10.1724441,14.8456639 C10.9020603,14.2122947 10.2583732,13.5069873 9.70217752,13.5898727 C9.26315789,13.6571193 9.54125574,13.0472082 9.14910653,13.012803 C8.75695733,12.9799616 8.24606972,12.202716 7.68362464,11.9337296 C7.38521629,11.7929809 7.09149497,11.4113955 6.63060249,11.3957568 C6.22282981,11.380118 5.62601309,11.741373 5.62601309,11.4630034 C5.62601309,10.5669033 5.53539694,9.92727861 5.51664877,9.67236706 C5.50102529,9.4674995 5.38228688,9.60355658 5.93379552,9.61606758 C6.23376624,9.62388696 6.08690557,9.01241202 6.38531394,8.98895392 C6.67747291,8.9654958 7.37271752,9.26263195 7.54926277,9.14377749 C7.71487161,9.03430627 8.76008204,11.8883772 8.76008202,9.61606758 C8.76008202,9.34708116 8.61947075,8.87791883 8.76008202,8.62300728 C9.31159066,7.61430823 9.82872766,6.79171025 9.7834196,6.67129191 C9.7568597,6.60404531 9.21784983,6.54774583 8.78664194,6.69162227 C8.64134363,6.74010238 8.83351236,6.96842806 8.62415779,7.01690817 C7.84142173,7.19831762 7.14930182,6.80578512 7.39146568,6.4382746 C7.63987892,6.06138085 8.5382287,6.27406777 8.61634606,5.51715252 C8.66165414,5.08395929 8.69915046,4.58195557 8.72414804,4.20818956 C9.77873255,4.37239639 9.66155649,2.84136325 8.09608437,2.67715644 C11.2660873,2.71312555 13.9517625,4.76023726 14.9360414,7.60023336 C14.8876086,7.55488099 14.8266771,7.52673126 14.7610585,7.52047576 C14.2876672,6.33818664 13.1377795,7.19362599 13.5283664,8.23673027 C11.4395079,9.84282938 11.9738307,10.9625635 12.6597012,11.6037521 C13.0206035,11.941549 13.3658822,12.4482443 13.5892979,12.8126271 C13.3455717,13.52419 14.4876477,13.2395648 15.0516551,12.0322537 C14.3282882,14.5297613 12.3347329,16.4580185 9.81466653,17.1007709 Z M14.704814,8.55732456 C14.8141783,9.06714764 14.8641734,9.58791785 14.8547993,10.1086881 C14.8313641,9.71615556 14.7798067,9.32518693 14.6985646,8.94047381 C14.7063763,8.8059806 14.709501,8.67774289 14.704814,8.55732456 Z" id="Shape"></path>
                </g>
            </g>
        </g>
    </g>
</svg>