<?xml version="1.0" encoding="UTF-8"?>
<svg width="126px" height="20px" viewBox="0 0 126 20" version="1.1" xmlns="http://www.w3.org/2000/svg" xmlns:xlink="http://www.w3.org/1999/xlink">
    <!-- Generator: Sketch 51.3 (57544) - http://www.bohemiancoding.com/sketch -->
    <title>logo</title>
    <desc>Created with Sketch.</desc>
    <defs></defs>
    <g id="page" stroke="none" stroke-width="1" fill="none" fill-rule="evenodd">
        <g id="首页" transform="translate(-28.000000, -20.000000)" fill="#009999">
            <g id="logo" transform="translate(28.000000, 20.000000)">
                <g id="SIEMENS">
                    <g id="Group">
                        <path d="M0.387529173,19.187044 L0.387529173,15.4037736 C2.5372738,16.0815094 4.43950709,16.4203774 6.09422903,16.4203774 C8.37884285,16.4203774 9.52133813,15.8154717 9.52133813,14.6065409 C9.52133813,14.1558491 9.3550748,13.7771069 9.02179469,13.4704403 C8.68097998,13.1451572 7.80809752,12.6942138 6.40540767,12.116478 C3.88860285,11.0798742 2.24744317,10.1958491 1.48406344,9.46465409 C0.494645954,8.49949686 0,7.28238994 0,5.81157233 C0,3.91748428 0.720809286,2.47383648 2.16142324,1.48176101 C3.58608898,0.49836478 5.44123107,0.00716981132 7.72973777,0.00716981132 C8.99065171,0.00716981132 10.8156554,0.239622642 13.2027397,0.705157233 L13.2027397,4.3445283 C11.4265852,3.63383648 9.77789098,3.27924528 8.25464766,3.27924528 C6.10967494,3.27924528 5.03725137,3.86918239 5.03725137,5.05169811 C5.03725137,5.49371069 5.25324301,5.85421384 5.68585415,6.13371069 C6.04563091,6.35987421 7.03693205,6.83761006 8.65762275,7.56842767 C10.9912114,8.60654088 12.5447187,9.50893082 13.3187724,10.276478 C14.2372392,11.1869182 14.6973516,12.3650314 14.6973516,13.8090566 C14.6973516,15.8846541 13.7960888,17.4679245 11.9948191,18.5588679 C10.5354942,19.443522 8.64318145,19.8840252 6.31901102,19.8840252 C4.35624985,19.8840252 2.37867064,19.6524528 0.387529173,19.187044 Z" id="Shape"></path>
                        <polygon id="Shape" points="17.7142021 0.340125786 17.7142021 0.340125786 23.0562278 0.340125786 23.0562278 19.4969811 17.7142021 19.4969811"></polygon>
                        <polygon id="Shape" points="27.9553449 19.4969811 27.9553449 0.340125786 41.6563723 0.340125786 41.6563723 3.80503145 33.1039827 3.80503145 33.1039827 8.13069182 40.5484106 8.13069182 40.5484106 11.291195 33.1039827 11.291195 33.1039827 15.8372327 41.8767591 15.8372327 41.8767591 19.4969811"></polygon>
                        <polygon id="Shape" points="45.364145 19.4969811 45.364145 0.340125786 52.2903185 0.340125786 57.1022856 12.5805031 62.0349317 0.340125786 68.6137606 0.340125786 68.6137606 19.4969811 63.5487568 19.4969811 63.5487568 5.93345912 57.9400066 19.6914465 54.6286791 19.6914465 49.1279247 5.93345912 49.1279247 19.4969811"></polygon>
                        <polygon id="Shape" points="73.5138824 19.4969811 73.5138824 0.340125786 87.2146586 0.340125786 87.2146586 3.80503145 78.6630224 3.80503145 78.6630224 8.13069182 86.1071992 8.13069182 86.1071992 11.291195 78.6630224 11.291195 78.6630224 15.8372327 87.4364267 15.8372327 87.4364267 19.4969811"></polygon>
                        <polygon id="Shape" points="90.9514394 19.4969811 90.9514394 0.340125786 97.1428647 0.340125786 103.711522 13.1641509 103.711522 0.340125786 107.474297 0.340125786 107.474297 19.4969811 101.458679 19.4969811 94.7157215 6.50037736 94.7157215 19.4969811"></polygon>
                        <path d="M111.266708,15.4037736 C113.398244,16.0815094 115.300226,16.4203774 116.974413,16.4203774 C119.259278,16.4203774 120.400392,15.8154717 120.400392,14.6065409 C120.400392,14.1558491 120.238523,13.7771069 119.91642,13.4704403 C119.573847,13.1451572 118.697323,12.6942138 117.286219,12.116478 C114.776949,11.0884277 113.134157,10.2047799 112.363745,9.46465409 C111.37483,8.50805031 110.881063,7.28641509 110.881063,5.79849057 C110.881063,3.91257862 111.600114,2.47371069 113.042235,1.48163522 C114.464766,0.498238994 116.322043,0.00704402516 118.6108,0.00704402516 C119.897583,0.00704402516 121.564988,0.211698113 123.610002,0.622893082 L124.082295,0.705031447 L124.082295,4.34440252 C122.30589,3.63371069 120.652424,3.2791195 119.121018,3.2791195 C116.984208,3.2791195 115.91844,3.8690566 115.91844,5.05157233 C115.91844,5.49358491 116.133301,5.85408805 116.564782,6.13358491 C116.907606,6.35106918 117.902926,6.8290566 119.550741,7.56830189 C121.866623,8.60641509 123.416865,9.50880503 124.1977,10.2763522 C125.117548,11.1867925 125.576531,12.3649057 125.576531,13.8089308 C125.576531,15.8845283 124.680542,17.4677987 122.888439,18.5587421 C121.420575,19.4433962 119.523491,19.8838994 117.199697,19.8838994 C115.234801,19.8840252 113.256343,19.6524528 111.266708,19.187044 L111.266708,15.4037736 Z" id="Shape"></path>
                    </g>
                </g>
            </g>
        </g>
    </g>
</svg>