<?xml version="1.0" encoding="UTF-8"?>
<svg width="16px" height="16px" viewBox="0 0 16 16" version="1.1" xmlns="http://www.w3.org/2000/svg" xmlns:xlink="http://www.w3.org/1999/xlink">
    <!-- Generator: Sketch 51.3 (57544) - http://www.bohemiancoding.com/sketch -->
    <title>项目管理</title>
    <desc>Created with Sketch.</desc>
    <defs></defs>
    <g id="page" stroke="none" stroke-width="1" fill="none" fill-rule="evenodd">
        <g id="首页" transform="translate(-36.000000, -142.000000)" fill="#738796" fill-rule="nonzero">
            <g id="左侧">
                <g id="项目管理" transform="translate(0.000000, 120.000000)">
                    <g transform="translate(36.000000, 22.000000)" id="Shape">
                        <path d="M5.38484311,0.924898957 L1.07635122,0.924898957 C0.480550683,0.924898957 0,1.40647866 0,2.00227918 L0,6.31077107 C0,6.90554258 0.481579704,7.38712229 1.07635122,7.38712229 L5.38484311,7.38712229 C5.97961463,7.38712229 6.46119433,6.90451356 6.46119433,6.31077107 L6.46119433,2.00227918 C6.46119433,1.40647864 5.97961463,0.924898957 5.38484311,0.924898957 Z M5.38484311,9.50792521 L1.07635122,9.50792521 C0.480550683,9.50792521 0,9.99053394 0,10.5853054 L0,14.8948263 C0,15.4885688 0.481579704,15.9711776 1.07635122,15.9711776 L5.38484311,15.9711776 C5.97961463,15.9711776 6.46119433,15.4885688 6.46119433,14.8948263 L6.46119433,10.5853054 C6.46119433,9.99053392 5.97961463,9.50792521 5.38484311,9.50792521 Z M15.6554563,3.36160993 L12.6085386,0.315721219 C12.4064773,0.113572998 12.1323712,0 11.8465519,0 C11.5607326,0 11.2866265,0.113572998 11.0845653,0.315721219 L8.03867654,3.36160993 C7.83659085,3.5634955 7.72304346,3.83743124 7.72304346,4.1230821 C7.72304346,4.40873295 7.83659085,4.68266869 8.03867654,4.88455427 L11.0845653,7.93044298 C11.505815,8.35027084 12.1872889,8.35027084 12.6085386,7.93044298 L15.6554563,4.88455427 C16.0751656,4.46365713 16.0751656,3.78250706 15.6554563,3.36160993 Z M11.8460374,7.16999983 L8.80014872,4.12411112 L11.8460374,1.07719339 L14.8939842,4.12411112 L11.8460374,7.16999983 Z M14.0007979,9.50792521 L9.69230599,9.50792521 C9.09753447,9.50792521 8.61595477,9.99053394 8.61595477,10.5853054 L8.61595477,14.8948263 C8.61595477,15.4885688 9.09753447,15.9711776 9.69230599,15.9711776 L14.0007979,15.9711776 C14.5965984,15.9711776 15.0771491,15.4885688 15.0771491,14.8948263 L15.0771491,10.5853054 C15.0771491,9.99053392 14.5965984,9.50792521 14.0007979,9.50792521 Z"></path>
                    </g>
                </g>
            </g>
        </g>
    </g>
</svg>