<?xml version="1.0" encoding="UTF-8"?>
<svg width="16px" height="16px" viewBox="0 0 16 16" version="1.1" xmlns="http://www.w3.org/2000/svg" xmlns:xlink="http://www.w3.org/1999/xlink">
    <!-- Generator: Sketch 51.3 (57544) - http://www.bohemiancoding.com/sketch -->
    <title>趋势</title>
    <desc>Created with Sketch.</desc>
    <defs></defs>
    <g id="page" stroke="none" stroke-width="1" fill="none" fill-rule="evenodd">
        <g id="首页" transform="translate(-36.000000, -262.000000)" fill="#FFFFFF" fill-rule="nonzero">
            <g id="左侧">
                <g id="数据趋势" transform="translate(0.000000, 240.000000)">
                    <g id="项目管理" transform="translate(36.000000, 22.000000)">
                        <g id="趋势">
                            <path d="M13.2498507,1.637 L11.9571131,0.34 C11.9009023,0.282598849 11.8844831,0.197090891 11.9154296,0.122921073 C11.9463762,0.0487512559 12.0186751,0.000332322643 12.0989746,-1.42108547e-15 L15.4856673,-1.42108547e-15 C15.7615402,-1.38197217e-15 15.9851795,0.223857625 15.9851795,0.5 L15.9851795,3.896 C15.9852442,3.97707079 15.9364095,4.05016098 15.8615318,4.08106174 C15.7866542,4.1119625 15.7005476,4.0945603 15.6435131,4.037 L14.6594741,3.051 L10.3716614,7.35 C10.1848284,7.53728873 9.93126459,7.64252945 9.66684972,7.64252945 C9.40243484,7.64252945 9.148871,7.53728873 8.96203801,7.35 L6.17475996,4.557 L1.70312679,9.04 C1.51625364,9.22759519 1.26247553,9.33303054 0.997815571,9.33303054 C0.733155612,9.33303054 0.479377499,9.22759519 0.292504351,9.04 C-0.0969462044,8.6492721 -0.0969462044,8.0167279 0.292504351,7.626 L5.47044777,2.436 C5.65732091,2.24840481 5.91109903,2.14296946 6.17575899,2.14296946 C6.44041894,2.14296946 6.69419706,2.24840481 6.8810702,2.436 L9.6663502,5.228 L13.2498507,1.637 Z M1.83100191,10 L3.49138045,10 C3.76725342,10 3.99089264,10.2238576 3.99089264,10.5 L3.99089264,16 L1.32949167,16 L1.32949167,10.5 C1.32949167,10.2238576 1.5531309,10 1.82900386,10 L1.83100191,10 Z M5.8201063,6.667 L7.48048484,6.667 C7.75635781,6.667 7.97999703,6.89085763 7.97999703,7.167 L7.97999703,16 L5.32059411,16 L5.32059411,7.167 C5.32059411,6.89085763 5.54423333,6.667 5.8201063,6.667 Z M9.81020972,8.667 L11.4705883,8.667 C11.7464612,8.667 11.9701004,8.89085763 11.9701004,9.167 L11.9701004,16 L9.31069752,16 L9.31069752,9.167 C9.31069752,8.89085763 9.53433675,8.667 9.81020972,8.667 Z M13.7993141,5.333 L15.4606917,5.333 C15.7365646,5.333 15.9602039,5.55685763 15.9602039,5.833 L15.9602039,16 L13.2998019,16 L13.2998019,5.833 C13.2998019,5.55685763 13.5234411,5.333 13.7993141,5.333 Z" id="Shape"></path>
                        </g>
                    </g>
                </g>
            </g>
        </g>
    </g>
</svg>