<?xml version="1.0" encoding="UTF-8"?>
<svg width="16px" height="16px" viewBox="0 0 16 16" version="1.1" xmlns="http://www.w3.org/2000/svg" xmlns:xlink="http://www.w3.org/1999/xlink">
    <!-- Generator: Sketch 51.3 (57544) - http://www.bohemiancoding.com/sketch -->
    <title>Shape</title>
    <desc>Created with Sketch.</desc>
    <defs></defs>
    <g id="page" stroke="none" stroke-width="1" fill="none" fill-rule="evenodd">
        <g id="首页" transform="translate(-1248.000000, -72.000000)" fill="#006487" fill-rule="nonzero">
            <g id="自定义" transform="translate(1248.000000, 72.000000)">
                <path d="M15.0739093,12 L8.81137947,12 C8.3052283,12 7.89491169,11.6001799 7.89491169,11.1069767 C7.89491169,10.6137736 8.3052283,10.2139535 8.81137947,10.2139535 L15.0739093,10.2139535 C15.5800605,10.2139535 15.9903771,10.6137736 15.9903771,11.1069767 C15.9903771,11.6001799 15.5800605,12 15.0739093,12 Z M15.0739093,8.8744186 L10.644315,8.8744186 C10.1381639,8.8744186 9.72784726,8.47459847 9.72784726,7.98139535 C9.72784726,7.48819222 10.1381639,7.08837209 10.644315,7.08837209 L15.0739093,7.08837209 C15.5800605,7.08837209 15.9903771,7.48819222 15.9903771,7.98139535 C15.9903771,8.47459847 15.5800605,8.8744186 15.0739093,8.8744186 Z M10.0666348,3.91218605 L9.15016706,5.45860465 L5.18170883,3.22604651 L6.0218043,1.80762791 L6.09817661,1.67962791 L6.5564105,0.905674419 C6.79932928,0.495306577 7.19969769,0.195865814 7.6693259,0.0733104496 C8.13895412,-0.0492449146 8.63931761,0.015138579 9.06020048,0.25227907 L9.85447255,0.698790698 C10.7309794,1.19194888 11.0313734,2.28402906 10.5254797,3.13823256 L10.0666348,3.91218605 Z M7.85183771,7.64948837 L7.77546539,7.77897674 L5.17880668,12.1607442 L4.33871122,13.5791628 L4.2623389,13.7071628 C4.2623389,13.7071628 1.00567064,16.3445581 0.292353222,15.9426977 C-0.349174224,15.5825116 0.293880668,11.4746047 0.293880668,11.4746047 L1.21034845,9.92818605 L3.80700716,5.5464186 L4.72347494,3.99851163 L8.69193317,6.23106977 L7.85183771,7.64948837 Z M7.13118854,13.3395349 L15.0739093,13.3395349 C15.5800605,13.3395349 15.9903771,13.739355 15.9903771,14.2325581 C15.9903771,14.7257613 15.5800605,15.1255814 15.0739093,15.1255814 L7.13118854,15.1255814 C6.62503737,15.1255814 6.21472076,14.7257613 6.21472076,14.2325581 C6.21472076,13.739355 6.62503737,13.3395349 7.13118854,13.3395349 Z" id="Shape"></path>
            </g>
        </g>
    </g>
</svg>