<?xml version="1.0" encoding="UTF-8"?>
<svg width="16px" height="16px" viewBox="0 0 16 16" version="1.1" xmlns="http://www.w3.org/2000/svg" xmlns:xlink="http://www.w3.org/1999/xlink">
    <!-- Generator: Sketch 51.3 (57544) - http://www.bohemiancoding.com/sketch -->
    <title>系统设置</title>
    <desc>Created with Sketch.</desc>
    <defs></defs>
    <g id="page" stroke="none" stroke-width="1" fill="none" fill-rule="evenodd">
        <g id="首页" transform="translate(-36.000000, -322.000000)" fill="#FFFFFF">
            <g id="左侧">
                <g id="系统设置" transform="translate(0.000000, 300.000000)">
                    <g id="项目管理" transform="translate(36.000000, 22.000000)">
                        <g id="系统设置">
                            <path d="M6.20626332,9.11622858 C6.60621288,9.11622858 6.98556883,9.04024192 7.33999567,8.88935411 C7.69659026,8.73738079 8.00549439,8.5278747 8.26887581,8.26083585 C8.53225722,7.99271148 8.73819331,7.68333721 8.88993569,7.33162751 C9.04059419,6.97991781 9.11646538,6.60215554 9.11646538,6.20268279 C9.11646538,5.801039 9.04059419,5.42436225 8.88993569,5.07373808 C8.73819331,4.72202838 8.53225722,4.41265411 8.26887581,4.15104288 C8.00549439,3.88834613 7.69659026,3.67992556 7.33999567,3.52903776 C6.98556883,3.37706443 6.60621288,3.30216329 6.20626332,3.30216329 C5.80631376,3.30216329 5.43020944,3.37706443 5.07795034,3.52903776 C4.72785899,3.67992556 4.42003874,3.88834613 4.15882507,4.15104288 C3.89652753,4.41265411 3.6884237,4.72094285 3.53776519,5.07373808 C3.38602281,5.42436225 3.3112355,5.80212453 3.3112355,6.20268279 C3.3112355,6.60324106 3.38602281,6.97991781 3.53776519,7.33162751 C3.6884237,7.68333721 3.89652753,7.99271148 4.15882507,8.26083585 C4.42112261,8.5278747 4.72785899,8.73629526 5.07903422,8.88935411 C5.43020944,9.04024192 5.80631376,9.11622858 6.20626332,9.11622858 M12.4125266,7.91346825 C12.4298686,8.0209351 12.4255331,8.14902691 12.3984363,8.30100023 C12.3713394,8.45188804 12.3269006,8.60603241 12.2651198,8.76126231 C12.2022551,8.91757773 12.1274677,9.0576103 12.0385901,9.18244553 C11.9507963,9.30836629 11.8510798,9.39629371 11.7448602,9.4505699 C11.6386405,9.50376056 11.5454273,9.53089866 11.4641368,9.53089866 C11.3839301,9.53089866 11.2950524,9.51353028 11.1975037,9.47770799 C11.1086261,9.45165542 10.9980709,9.42668838 10.8647544,9.40389238 C10.730354,9.3821819 10.5948697,9.37783981 10.4572177,9.39086609 C10.3184818,9.40389238 10.1808298,9.43320152 10.0442616,9.47662247 C9.90660963,9.52112894 9.78738348,9.59711561 9.69091868,9.70458246 C9.47739547,9.92711483 9.3505822,10.1800419 9.31589823,10.4666201 C9.28121425,10.7521129 9.32023372,11.0234938 9.43620826,11.2818485 C9.52508593,11.4598744 9.51207945,11.6379003 9.39610491,11.8159262 C9.34407895,11.8875708 9.25628515,11.9613864 9.14247836,12.0362875 C9.0275877,12.1133597 8.89969056,12.1817477 8.76203854,12.2447081 C8.6254704,12.3065829 8.48023126,12.3554315 8.32848889,12.3923393 C8.17674651,12.4270761 8.04342999,12.4444444 7.92745545,12.4444444 C7.84724877,12.4444444 7.77246145,12.4129643 7.70092576,12.3510894 C7.63047394,12.288129 7.5816996,12.2208265 7.55351888,12.1502675 L7.54051239,12.1502675 C7.44296371,11.8734589 7.2760471,11.6357292 7.04084641,11.4359929 C6.80456185,11.2340854 6.53142556,11.1342173 6.21926981,11.1342173 C5.91686893,11.1342173 5.64264877,11.2340854 5.39877709,11.4359929 C5.15382153,11.6357292 4.98256942,11.8691168 4.88393687,12.1372412 C4.83949803,12.2447081 4.77338171,12.3217803 4.68342016,12.3717144 C4.59671022,12.4205629 4.49807768,12.4444444 4.39077414,12.4444444 C4.26612861,12.4444444 4.12630885,12.422734 3.97023097,12.377142 C3.8141531,12.3326355 3.65915909,12.2761883 3.50308122,12.2099713 C3.34700334,12.1437544 3.20718358,12.0655967 3.08253805,11.9754982 C2.95789253,11.8875708 2.86467935,11.7974723 2.80181465,11.7095449 C2.75737581,11.6465845 2.73353058,11.5727689 2.72919508,11.4891835 C2.72377571,11.4034272 2.75737581,11.2851051 2.8289115,11.1342173 C2.92754405,10.9290533 2.96439577,10.6956657 2.94271829,10.4318834 C2.9210408,10.1691866 2.80723402,9.92602931 2.60238181,9.70349694 C2.47773628,9.56889199 2.3259939,9.48313561 2.14823854,9.44297123 C1.97048318,9.40280685 1.80248269,9.38760952 1.64206932,9.39629371 C1.45455909,9.4049779 1.26271337,9.44080019 1.06761603,9.50267504 C0.942970501,9.53958285 0.818324975,9.52981313 0.693679449,9.47553695 C0.595046902,9.44080019 0.505085349,9.35830038 0.419459292,9.22912305 C0.334917109,9.09994572 0.260129793,8.95774211 0.192929597,8.80142669 C0.1257294,8.64511127 0.0747873156,8.48553927 0.039019469,8.32053966 C0.00325162242,8.15554005 -0.0054193707,8.01984958 0.0119226155,7.91238272 C0.039019469,7.71698845 0.127897148,7.59215321 0.279639528,7.53896255 C0.546272566,7.4314957 0.785808751,7.25564085 0.999331956,7.01031248 C1.21285516,6.7649841 1.3201587,6.49143212 1.3201587,6.18748546 C1.3201587,5.87702566 1.21393904,5.6045592 0.999331956,5.37225711 C0.785808751,5.13995503 0.545188692,4.97169884 0.279639528,4.86423199 C0.200516716,4.83926495 0.134400393,4.77521904 0.0812905604,4.67209429 C0.0281807276,4.57005505 0,4.46475925 0,4.35837792 C0,4.24222687 0.0184258604,4.11304955 0.054193707,3.97084593 C0.0888776794,3.8275568 0.135484267,3.68969528 0.194013471,3.55509033 C0.2514588,3.42265643 0.318658997,3.29999225 0.394530187,3.1881833 C0.470401376,3.07745987 0.552775811,2.99387454 0.640569616,2.9417694 C0.712105309,2.89617741 0.782557128,2.87880903 0.848673451,2.88749322 C0.914789773,2.89617741 0.988493215,2.91463131 1.0686999,2.9417694 C1.33533294,3.04815073 1.61388859,3.08071645 1.90328299,3.04163759 C2.19159351,3.00147321 2.44738781,2.87446693 2.669582,2.66061875 C2.77688554,2.55423742 2.85384061,2.42180352 2.90369882,2.26657362 C2.95247316,2.1102582 2.98390551,1.95611382 2.99691199,1.80522602 C3.01100236,1.65325269 3.01100236,1.51539118 2.99691199,1.39055594 C2.98390551,1.26572071 2.97198289,1.17670776 2.9633119,1.1235171 C2.94596991,1.07032643 2.93079567,1.00736605 2.91670531,0.935721486 C2.90369882,0.864076917 2.91020206,0.802202062 2.93621504,0.749011398 C2.98932488,0.624176165 3.08578967,0.515623788 3.22344169,0.422268745 C3.36109371,0.328913701 3.51066834,0.25075599 3.67108171,0.186710088 C3.83149508,0.125920757 3.98757296,0.0792432349 4.13823146,0.0477630457 C4.28888997,0.0151973327 4.4092,0 4.49807768,0 C4.61296834,0 4.70509764,0.0379933318 4.77229783,0.113979995 C4.83841416,0.189966659 4.88502075,0.26812437 4.9121176,0.348453129 C5.00966627,0.589439405 5.17007964,0.800031015 5.39227384,0.983484531 C5.61446804,1.16585252 5.87784946,1.25812204 6.18025034,1.25812204 C6.49132222,1.25812204 6.76662625,1.17019462 7.00724631,0.996510816 C7.24786637,0.822827014 7.41695073,0.60246569 7.51449941,0.335426843 C7.55026725,0.263782275 7.60662871,0.189966659 7.68141602,0.115065519 C7.75620334,0.0379933318 7.83424228,0.00108552377 7.91553284,0.00108552377 C8.03909449,0.00108552377 8.17566263,0.018453904 8.32306951,0.0542761883 C8.46939252,0.0900984725 8.61463166,0.138947042 8.7555353,0.20190742 C8.89969056,0.263782275 9.03083933,0.344111034 9.15006548,0.441808172 C9.27037551,0.540590835 9.36575644,0.646972164 9.43729213,0.763123207 C9.48173097,0.834767775 9.49473746,0.911839963 9.47739547,0.996510816 C9.45896961,1.08118167 9.44162763,1.141971 9.42428564,1.17670776 C9.30831111,1.43506242 9.27254326,1.70644336 9.3169821,1.99302163 C9.36142094,2.27742886 9.49148584,2.52709933 9.70392517,2.74094751 C9.91744837,2.95479569 10.1797459,3.07311778 10.4908178,3.09591378 C10.8018897,3.11762425 11.0923679,3.06660464 11.359001,2.9417694 C11.4294528,2.89726293 11.5161627,2.87880903 11.6191308,2.88857874 C11.7220988,2.89726293 11.806641,2.93851283 11.8781767,3.00907188 C12.0114932,3.13282159 12.1296355,3.32278825 12.2326035,3.57680081 C12.3344877,3.83081337 12.4038556,4.08699698 12.4385396,4.34535163 C12.4569655,4.49732496 12.4320364,4.61564705 12.3670039,4.7003179 C12.2998037,4.78390323 12.2315197,4.84035047 12.1578162,4.86640304 C11.8825122,4.9651857 11.6483954,5.13669846 11.4522142,5.3809413 C11.2560329,5.62626968 11.1584843,5.90524928 11.1584843,6.2167946 C11.1584843,6.51965573 11.2419426,6.78452353 11.4045237,7.01248352 C11.5692726,7.23827247 11.7849635,7.40110103 12.0515966,7.49988369 C12.1133774,7.53462045 12.1675711,7.57152826 12.2120099,7.60626502 C12.3095586,7.68659378 12.3767588,7.78863302 12.4125266,7.91346825" id="Fill-1"></path>
                            <path d="M12.8815321,14.3365079 C13.081263,14.3365079 13.2704261,14.2984127 13.4479646,14.2232804 C13.6265599,14.1470899 13.7808494,14.042328 13.9129465,13.9089947 C14.0439869,13.7746032 14.1464943,13.6201058 14.223639,13.4433862 C14.2986702,13.2677249 14.3356574,13.0804233 14.3356574,12.8793651 C14.3356574,12.6793651 14.2986702,12.4910053 14.223639,12.3153439 C14.1464943,12.1396825 14.0439869,11.9851852 13.9129465,11.8529101 C13.7808494,11.7216931 13.6265599,11.6190476 13.4479646,11.5428571 C13.2704261,11.4666667 13.0802062,11.4296296 12.8815321,11.4296296 C12.6818012,11.4296296 12.4926381,11.4666667 12.3172131,11.5428571 C12.1417881,11.6190476 11.9874987,11.7216931 11.8564583,11.8529101 C11.725418,11.9851852 11.6229106,12.1396825 11.5468226,12.3153439 C11.4707347,12.4910053 11.4326907,12.6793651 11.4326907,12.8793651 C11.4326907,13.0804233 11.4707347,13.2677249 11.5468226,13.4433862 C11.6229106,13.6190476 11.725418,13.7746032 11.8564583,13.9089947 C11.9874987,14.042328 12.1417881,14.1460317 12.3172131,14.2232804 C12.4936949,14.2984127 12.6818012,14.3365079 12.8815321,14.3365079 M15.9852864,13.7354497 C15.9926839,13.7883598 15.9905703,13.8529101 15.977889,13.9280423 C15.9641509,14.0042328 15.9419586,14.0814815 15.9102552,14.1587302 C15.8796087,14.237037 15.8426215,14.3079365 15.7982369,14.3693122 C15.7538522,14.4328042 15.7041837,14.4772487 15.6502881,14.5026455 C15.5974492,14.5312169 15.5498943,14.5428571 15.5097367,14.5428571 C15.470636,14.5428571 15.4262513,14.5343915 15.3765828,14.5174603 C15.3321982,14.5037037 15.2772458,14.4910053 15.2106688,14.4804233 C15.1430351,14.4687831 15.0754013,14.4666667 15.0067108,14.4740741 C14.9369635,14.4804233 14.8693298,14.4941799 14.7995825,14.5164021 C14.7319488,14.5375661 14.6717125,14.5777778 14.6231007,14.6296296 C14.517423,14.7417989 14.4529596,14.8687831 14.4360512,15.0116402 C14.418086,15.1534392 14.4392215,15.2888889 14.4962875,15.4179894 C14.5406721,15.5079365 14.5332747,15.5968254 14.4762087,15.6857143 C14.4497893,15.7227513 14.4064614,15.7587302 14.3504523,15.7968254 C14.2912727,15.8349206 14.2278661,15.8687831 14.1591756,15.9005291 C14.0915419,15.9322751 14.0175675,15.9555556 13.9425363,15.9746032 C13.8664483,15.9904762 13.7998714,16 13.7406919,16 C13.7015911,16 13.6646039,15.9851852 13.6286735,15.9534392 C13.5937999,15.9227513 13.5684372,15.8888889 13.5557559,15.8539683 L13.5483584,15.8539683 C13.4997467,15.7153439 13.4162613,15.5957672 13.298959,15.4962963 C13.1806,15.3957672 13.043219,15.3449735 12.8878728,15.3449735 C12.7356969,15.3449735 12.5993726,15.3957672 12.4767865,15.4962963 C12.3542003,15.5957672 12.2686014,15.7132275 12.2199896,15.8465608 C12.1977973,15.9005291 12.1639805,15.9396825 12.1195958,15.9640212 C12.0752112,15.9883598 12.0265994,16 11.9737606,16 C11.9114107,16 11.8416634,15.989418 11.7624052,15.9661376 C11.6852604,15.9449735 11.6070589,15.9164021 11.5299142,15.8835979 C11.4506559,15.8497354 11.3809086,15.810582 11.3185588,15.7661376 C11.2572657,15.7216931 11.2107675,15.6772487 11.1790642,15.6328042 C11.1568719,15.6010582 11.1441906,15.5640212 11.142077,15.5227513 C11.1399634,15.4804233 11.1568719,15.4201058 11.1917455,15.3449735 C11.241414,15.242328 11.260436,15.1259259 11.2488115,14.9936508 C11.2382437,14.8624339 11.1822345,14.7417989 11.0786704,14.6296296 C11.0163205,14.562963 10.9412894,14.5195767 10.8525201,14.4994709 C10.762694,14.4793651 10.6792086,14.4719577 10.5988936,14.4761905 C10.5048404,14.4804233 10.4097305,14.4984127 10.3114502,14.5301587 C10.2491004,14.5470899 10.1867505,14.5428571 10.1244007,14.5164021 C10.0757889,14.4984127 10.0303475,14.4571429 9.98807642,14.3936508 C9.94580534,14.3280423 9.90776136,14.2571429 9.87394449,14.1798942 C9.84012763,14.1005291 9.81582175,14.021164 9.79679977,13.9386243 C9.77883455,13.8560847 9.77566422,13.7873016 9.78306166,13.7343915 C9.79679977,13.637037 9.8411844,13.573545 9.91727235,13.5481481 C10.0504263,13.4941799 10.1708989,13.4063492 10.2776333,13.2835979 C10.3843678,13.1608466 10.4372067,13.0243386 10.4372067,12.8719577 C10.4372067,12.7164021 10.3843678,12.5809524 10.2776333,12.4634921 C10.1708989,12.3481481 10.0504263,12.2645503 9.91727235,12.210582 C9.8781716,12.1978836 9.84541151,12.1650794 9.81899208,12.1142857 C9.79151588,12.0634921 9.77777778,12.010582 9.77777778,11.957672 C9.77777778,11.8994709 9.78623199,11.8349206 9.80525398,11.762963 C9.82216242,11.6920635 9.84541151,11.6232804 9.87394449,11.5566138 C9.90459103,11.4899471 9.93735112,11.4285714 9.97539509,11.3724868 C10.0123823,11.3164021 10.0535966,11.2751323 10.0979812,11.2486772 C10.1339117,11.226455 10.1687853,11.2179894 10.2026022,11.2222222 C10.2353623,11.226455 10.2712927,11.2349206 10.3114502,11.2486772 C10.4456609,11.3026455 10.5840987,11.3185185 10.7299339,11.2994709 C10.8736556,11.2783069 11.0025824,11.215873 11.1124872,11.1089947 C11.1663829,11.0550265 11.2044269,10.989418 11.2297895,10.9121693 C11.2540954,10.8328042 11.269947,10.7566138 11.2752309,10.6804233 C11.2826284,10.605291 11.2826284,10.5354497 11.2752309,10.4740741 C11.269947,10.410582 11.2646631,10.3671958 11.260436,10.3407407 C11.250925,10.3132275 11.2424708,10.2825397 11.2361302,10.2465608 C11.2297895,10.2116402 11.2329598,10.178836 11.2456412,10.1534392 C11.2731174,10.0899471 11.3196156,10.0359788 11.3893628,9.98941799 C11.4580534,9.94285714 11.5330845,9.9037037 11.6133996,9.87195767 C11.6937146,9.84126984 11.7708594,9.81798942 11.8469473,9.8021164 C11.9230353,9.78624339 11.9822148,9.77777778 12.0265994,9.77777778 C12.0847222,9.77777778 12.1301636,9.7968254 12.1639805,9.83492063 C12.1977973,9.87301587 12.2199896,9.91216931 12.2337277,9.95238095 C12.2833963,10.0730159 12.3626545,10.1777778 12.4736161,10.2698413 C12.5856345,10.3608466 12.7166749,10.4074074 12.867794,10.4074074 C13.024197,10.4074074 13.161578,10.3640212 13.2820506,10.2761905 C13.4014664,10.189418 13.4860086,10.0804233 13.5356771,9.94603175 C13.5536423,9.91005291 13.5811185,9.87301587 13.6181057,9.83597884 C13.6561497,9.7978836 13.6952505,9.77883598 13.7364648,9.77883598 C13.7977578,9.77883598 13.8664483,9.78730159 13.939366,9.80529101 C14.0122836,9.82328042 14.0852012,9.84761905 14.1560053,9.87936508 C14.2278661,9.91005291 14.2933863,9.95026455 14.3536226,9.9989418 C14.4128021,10.0486772 14.4603571,10.1015873 14.4962875,10.1597884 C14.5195366,10.1957672 14.5258772,10.2338624 14.517423,10.2761905 C14.507912,10.3185185 14.498401,10.3492063 14.4899468,10.3671958 C14.4328809,10.4962963 14.4138589,10.631746 14.437108,10.7746032 C14.4582435,10.9174603 14.5237637,11.042328 14.6294414,11.1481481 C14.7372327,11.2560847 14.868273,11.3153439 15.0236193,11.3259259 C15.1800223,11.3375661 15.3248007,11.3121693 15.4579546,11.2497354 C15.4938851,11.2275132 15.5372129,11.2179894 15.5879382,11.2232804 C15.6386635,11.2275132 15.6809346,11.247619 15.7179218,11.2825397 C15.7844988,11.3449735 15.8436783,11.4402116 15.8944036,11.5671958 C15.9451289,11.6941799 15.9800025,11.8222222 15.996911,11.9513228 C16.006422,12.026455 15.9937406,12.0857143 15.9620373,12.1280423 C15.9282204,12.1703704 15.8944036,12.1978836 15.8574164,12.2116402 C15.7200354,12.2603175 15.6016763,12.3460317 15.5044528,12.4687831 C15.4072293,12.5915344 15.3575608,12.7301587 15.3575608,12.8867725 C15.3575608,13.037037 15.3987751,13.1703704 15.480147,13.2846561 C15.5625756,13.3968254 15.6714236,13.4783069 15.8045775,13.5280423 C15.8352241,13.5460317 15.8616435,13.5640212 15.8838358,13.5809524 C15.9335043,13.621164 15.9673212,13.6730159 15.9852864,13.7354497" id="Fill-4"></path>
                        </g>
                    </g>
                </g>
            </g>
        </g>
    </g>
</svg>