<?xml version="1.0" encoding="UTF-8"?>
<svg width="40px" height="39px" viewBox="0 0 40 39" version="1.1" xmlns="http://www.w3.org/2000/svg" xmlns:xlink="http://www.w3.org/1999/xlink">
    <!-- Generator: Sketch 51.3 (57544) - http://www.bohemiancoding.com/sketch -->
    <title>Group 10</title>
    <desc>Created with Sketch.</desc>
    <defs>
        <polygon id="path-1" points="0.3103 0.406829268 21.583 0.406829268 21.583 21.1676098 0.3103 21.1676098"></polygon>
    </defs>
    <g id="page" stroke="none" stroke-width="1" fill="none" fill-rule="evenodd">
        <g id="首页" transform="translate(-1208.000000, -126.000000)">
            <g id="数量" transform="translate(1054.000000, 100.000000)">
                <g id="项目总数">
                    <g id="Group-10" transform="translate(154.000000, 25.000000)">
                        <path d="M13.631,3.03795122 L3.398,3.03795122 C1.516,3.03795122 0,4.52965854 0,6.35307317 L0,16.3364878 C0,18.1725854 1.529,19.6516098 3.398,19.6516098 L13.631,19.6516098 C15.513,19.6516098 17.029,18.1599024 17.029,16.3364878 L17.029,6.35307317 C17.029,4.52965854 15.5,3.03795122 13.631,3.03795122 M13.631,5.08478049 C14.336,5.08478049 14.931,5.66526829 14.931,6.35307317 L14.931,16.3364878 C14.931,17.036 14.348,17.6047805 13.631,17.6047805 L3.398,17.6047805 C2.681,17.6047805 2.098,17.036 2.098,16.3364878 L2.098,6.35307317 C2.098,5.65356098 2.681,5.08478049 3.398,5.08478049 L13.631,5.08478049" id="Fill-1" fill="#FFFFFF"></path>
                        <path d="M13.631,22.9798049 L3.398,22.9798049 C1.516,22.9798049 0,24.4715122 0,26.2939512 L0,36.2783415 C0,38.114439 1.529,39.5934634 3.398,39.5934634 L13.631,39.5934634 C15.513,39.5934634 17.029,38.1017561 17.029,36.2783415 L17.029,26.2939512 C17.029,24.4715122 15.5,22.9798049 13.631,22.9798049 M13.631,25.0266341 C14.336,25.0266341 14.931,25.607122 14.931,26.2939512 L14.931,36.2783415 C14.931,36.9778537 14.348,37.5466341 13.631,37.5466341 L3.398,37.5466341 C2.681,37.5466341 2.098,36.9778537 2.098,36.2783415 L2.098,26.2939512 C2.098,25.5954146 2.681,25.0266341 3.398,25.0266341 L13.631,25.0266341" id="Fill-3" fill="#FFFFFF"></path>
                        <g id="Group-7" transform="translate(18.000000, 0.569073)">
                            <mask id="mask-2" fill="white">
                                <use xlink:href="#path-1"></use>
                            </mask>
                            <g id="Clip-6"></g>
                            <path d="M10.9483,0.406634146 C10.0793,0.406634146 9.2103,0.728585366 8.5433,1.3724878 L1.3033,8.42321951 C0.6623,9.04760976 0.3103,9.88956098 0.3103,10.769561 C0.3103,11.6485854 0.6623,12.5032195 1.3033,13.1285854 L8.5433,20.192 C9.2103,20.8427317 10.0793,21.1676098 10.9483,21.1676098 C11.8173,21.1676098 12.6863,20.8427317 13.3523,20.192 L20.5933,13.1285854 C21.9133,11.8280976 21.9133,9.72370732 20.5933,8.43590244 L13.3523,1.3724878 C12.6863,0.728585366 11.8173,0.406634146 10.9483,0.406634146 M10.9483,2.45346341 C11.2983,2.45346341 11.6273,2.58614634 11.8693,2.81931707 L19.1093,9.88370732 C19.6153,10.3763902 19.6123,11.1861463 19.1093,11.6807805 L11.8693,18.7441951 C11.6213,18.987122 11.2943,19.1207805 10.9483,19.1207805 C10.6023,19.1207805 10.2753,18.987122 10.0273,18.7441951 L2.7863,11.6807805 C2.5463,11.4456585 2.4073,11.1139512 2.4073,10.769561 C2.4073,10.4280976 2.5423,10.1090732 2.7853,9.872 L10.0193,2.82614634 C10.2683,2.58614634 10.5983,2.45346341 10.9483,2.45346341" id="Fill-5" fill="#FFFFFF" mask="url(#mask-2)"></path>
                        </g>
                        <path d="M34.0714,22.9798049 L23.8384,22.9798049 C21.9564,22.9798049 20.4404,24.4715122 20.4404,26.2939512 L20.4404,36.2783415 C20.4404,38.114439 21.9684,39.5934634 23.8384,39.5934634 L34.0714,39.5934634 C35.9534,39.5934634 37.4694,38.1017561 37.4694,36.2783415 L37.4694,26.2939512 C37.4694,24.4715122 35.9404,22.9798049 34.0714,22.9798049 M34.0714,25.0266341 C34.7764,25.0266341 35.3714,25.607122 35.3714,26.2939512 L35.3714,36.2783415 C35.3714,36.9778537 34.7884,37.5466341 34.0714,37.5466341 L23.8384,37.5466341 C23.1214,37.5466341 22.5384,36.9778537 22.5384,36.2783415 L22.5384,26.2939512 C22.5384,25.5954146 23.1214,25.0266341 23.8384,25.0266341 L34.0714,25.0266341" id="Fill-8" fill="#FFFFFF"></path>
                    </g>
                </g>
            </g>
        </g>
    </g>
</svg>