<?xml version="1.0" encoding="UTF-8"?>
<svg width="16px" height="16px" viewBox="0 0 16 16" version="1.1" xmlns="http://www.w3.org/2000/svg" xmlns:xlink="http://www.w3.org/1999/xlink">
    <!-- Generator: Sketch 51.3 (57544) - http://www.bohemiancoding.com/sketch -->
    <title>用户管理</title>
    <desc>Created with Sketch.</desc>
    <defs></defs>
    <g id="page" stroke="none" stroke-width="1" fill="none" fill-rule="evenodd">
        <g id="首页" transform="translate(-36.000000, -202.000000)" fill="#738796" fill-rule="nonzero">
            <g id="左侧">
                <g id="用户管理-copy" transform="translate(0.000000, 180.000000)">
                    <g id="项目管理" transform="translate(36.000000, 22.000000)">
                        <g id="用户管理">
                            <path d="M15.996,12.692 L16,11.069 C16,11.069 14.929,10.856 14.91,10.784 C14.89,10.705 14.869,10.626 14.846,10.551 C14.971,10.319 15.575,9.807 15.575,9.807 L14.366,8.199 C14.366,8.199 13.583,8.844 13.388,8.936 C13.297,8.9 13.202,8.869 13.102,8.839 C12.997,8.813 12.706,7.78 12.706,7.78 L11.079,7.766 C11.079,7.766 10.903,8.766 10.641,8.834 C10.552,8.859 10.464,8.893 10.376,8.934 C10.181,8.839 9.398,8.184 9.398,8.184 L8.189,9.82 C8.189,9.82 8.795,10.43 8.835,10.634 C8.81,10.698 8.785,10.764 8.763,10.83 C8.503,10.921 7.763,11.068 7.763,11.068 L7.767,12.691 C7.767,12.691 8.626,12.87 8.79,13.013 C8.82383875,13.1061554 8.86221802,13.1975982 8.905,13.287 C8.707,13.535 8.176,13.948 8.176,13.948 L9.422,15.571 C9.422,15.571 10.401,14.937 10.562,14.901 C10.642,14.935 10.723,14.968 10.806,14.997 C10.953,15.049 11.058,15.994 11.058,15.994 L12.684,16 C12.684,16 12.74,15.072 12.859,15.035 C12.976,14.998 13.092,14.955 13.204,14.906 C13.341,14.96 13.982,15.599 13.982,15.599 L15.588,13.963 C15.588,13.963 14.991,13.551 14.827,13.329 C14.8713298,13.2362883 14.9120274,13.1418833 14.949,13.046 C15.004,12.899 15.996,12.692 15.996,12.692 Z M11.863,13.922 C10.731,13.922 9.813,13.004 9.813,11.872 C9.813,10.74 10.731,9.823 11.863,9.823 C12.995,9.823 13.912,10.74 13.912,11.872 C13.912,13.004 12.994,13.922 11.863,13.922 Z M6.649,7.689 C8.513,7.689 10.41,5.856 10.41,3.915 C10.41,1.974 8.604,0 6.74,0 C4.876,0 3.022,2.022 3.022,3.962 C3.022,5.903 4.785,7.689 6.649,7.689 Z M7.469,8.497 L3.741,8.497 C2.808,8.497 1.41,8.983 0.945,10.437 C0.48,11.892 0.48,11.892 0.012,13.348 C-0.222,14.079 3.193,14.451 6.589,14.439 C7.716,14.436 6.948,13.51 6.948,12.336 C6.948,9.661 9.23,8.497 7.469,8.497 Z" id="Shape"></path>
                        </g>
                    </g>
                </g>
            </g>
        </g>
    </g>
</svg>