<?xml version="1.0" encoding="UTF-8"?>
<svg width="42px" height="42px" viewBox="0 0 42 42" version="1.1" xmlns="http://www.w3.org/2000/svg" xmlns:xlink="http://www.w3.org/1999/xlink">
    <!-- Generator: Sketch 51.3 (57544) - http://www.bohemiancoding.com/sketch -->
    <title>Group 9</title>
    <desc>Created with Sketch.</desc>
    <defs></defs>
    <g id="page" stroke="none" stroke-width="1" fill="none" fill-rule="evenodd">
        <g id="首页" transform="translate(-1206.000000, -231.000000)">
            <g id="数量" transform="translate(1054.000000, 100.000000)">
                <g id="控制器" transform="translate(0.000000, 108.000000)">
                    <g id="Group-9" transform="translate(153.000000, 24.000000)">
                        <path d="M-0.0001,3.0004 C-0.0001,1.3434 1.3419,0.0004 2.9999,0.0004 L36.9999,0.0004 C38.6569,0.0004 40.0009,1.3424 40.0009,3.0004 L40.0009,37.0004 C40.0009,38.6564 38.6579,40.0004 36.9999,40.0004 L2.9999,40.0004 C1.3439,40.0004 -0.0001,38.6584 -0.0001,37.0004 L-0.0001,3.0004 Z" id="Stroke-1" stroke="#FFFFFF" stroke-width="2"></path>
                        <path d="M9.9999,15.9999 C8.8959,15.9999 7.9999,15.1049 7.9999,13.9999 C7.9999,12.8959 8.8959,11.9999 9.9999,11.9999 C11.1049,11.9999 11.9999,12.8959 11.9999,13.9999 C11.9999,15.1049 11.1049,15.9999 9.9999,15.9999 M11.1999,10.1829 L11.1999,6.9999 L8.7999,6.9999 L8.7999,10.1829 C7.1769,10.6929 5.9999,12.2089 5.9999,13.9999 C5.9999,15.7909 7.1769,17.3069 8.7999,17.8169 L8.7999,32.9999 L11.1999,32.9999 L11.1999,17.8169 C12.8229,17.3069 13.9999,15.7909 13.9999,13.9999 C13.9999,12.2089 12.8229,10.6929 11.1999,10.1829" id="Fill-3" fill="#FFFFFF"></path>
                        <path d="M30.0004,15.9999 C28.8964,15.9999 28.0004,15.1049 28.0004,13.9999 C28.0004,12.8959 28.8964,11.9999 30.0004,11.9999 C31.1044,11.9999 32.0004,12.8959 32.0004,13.9999 C32.0004,15.1049 31.1044,15.9999 30.0004,15.9999 M31.1994,10.1829 L31.1994,6.9999 L28.8004,6.9999 L28.8004,10.1829 C27.1774,10.6929 26.0004,12.2089 26.0004,13.9999 C26.0004,15.7909 27.1774,17.3069 28.8004,17.8169 L28.8004,32.9999 L31.1994,32.9999 L31.1994,17.8169 C32.8224,17.3069 34.0004,15.7909 34.0004,13.9999 C34.0004,12.2089 32.8224,10.6929 31.1994,10.1829" id="Fill-5" fill="#FFFFFF"></path>
                        <path d="M19.9999,27.9999 C18.8959,27.9999 17.9999,27.1039 17.9999,25.9999 C17.9999,24.8959 18.8959,23.9999 19.9999,23.9999 C21.1049,23.9999 21.9999,24.8959 21.9999,25.9999 C21.9999,27.1039 21.1049,27.9999 19.9999,27.9999 M21.1999,22.1839 L21.1999,6.9999 L18.7999,6.9999 L18.7999,22.1839 C17.1769,22.6929 15.9999,24.2089 15.9999,25.9999 C15.9999,27.7909 17.1769,29.3079 18.7999,29.8169 L18.7999,32.9999 L21.1999,32.9999 L21.1999,29.8169 C22.8229,29.3079 23.9999,27.7909 23.9999,25.9999 C23.9999,24.2089 22.8229,22.6929 21.1999,22.1839" id="Fill-7" fill="#FFFFFF"></path>
                    </g>
                </g>
            </g>
        </g>
    </g>
</svg>