<?xml version="1.0" encoding="UTF-8"?>
<svg width="40px" height="38px" viewBox="0 0 40 38" version="1.1" xmlns="http://www.w3.org/2000/svg" xmlns:xlink="http://www.w3.org/1999/xlink">
    <!-- Generator: Sketch 51.3 (57544) - http://www.bohemiancoding.com/sketch -->
    <title>Group 18</title>
    <desc>Created with Sketch.</desc>
    <defs>
        <polygon id="path-1" points="0.5385 0.364 3.45361651 0.364 3.45361651 7.5099 0.5385 7.5099"></polygon>
        <polygon id="path-3" points="0.2641 0.8615 7 0.8615 7 3.7925 0.2641 3.7925"></polygon>
        <polygon id="path-5" points="0.5428 0.9675 31.4568 0.9675 31.4568 29 0.5428 29"></polygon>
    </defs>
    <g id="page" stroke="none" stroke-width="1" fill="none" fill-rule="evenodd">
        <g id="首页" transform="translate(-1208.000000, -450.000000)">
            <g id="数量" transform="translate(1054.000000, 100.000000)">
                <g id="报警设备" transform="translate(0.000000, 324.000000)">
                    <g id="Group-18" transform="translate(154.000000, 25.500000)">
                        <path d="M30.1747,12.726 L30.3557,12.909 L34.1727,9.062 C34.5367,8.695 34.5367,8.329 34.5367,7.962 C34.4987,7.574 34.3737,7.198 34.1727,6.863 C33.5417,6.463 32.7207,6.538 32.1737,7.046 L28.3597,10.886 L28.7217,11.069 C29.0857,11.802 29.6297,12.168 30.1747,12.726" id="Fill-1" fill="#FFFFFF"></path>
                        <path d="M6.7352,19.497 L1.4652,19.497 C0.6562,19.497 0.0002,20.153 0.0002,20.963 C0.0002,21.772 0.6562,22.428 1.4652,22.428 L6.7352,22.428 L6.7352,19.497 Z" id="Fill-3" fill="#FFFFFF"></path>
                        <g id="Group-7" transform="translate(18.000000, 0.635500)">
                            <mask id="mask-2" fill="white">
                                <use xlink:href="#path-1"></use>
                            </mask>
                            <g id="Clip-6"></g>
                            <path d="M3.4535,1.8219 C3.4635,1.0279 2.8285,0.3749 2.0335,0.3639 L1.9955,0.3639 C1.2145,0.4189 0.5925,1.0409 0.5385,1.8219 L0.5385,7.5099 L3.4535,7.5099 L3.4535,1.8219 Z" id="Fill-5" fill="#FFFFFF" mask="url(#mask-2)"></path>
                        </g>
                        <path d="M9.8251,12.9008 L10.0061,12.7178 C10.4551,12.0778 11.0081,11.5168 11.6431,11.0608 L12.0051,10.8778 L8.0081,6.8548 C7.2811,6.3048 6.3731,6.3048 5.8271,6.8548 C5.6261,7.1898 5.5011,7.5658 5.4631,7.9538 C5.5011,8.3428 5.6261,8.7188 5.8271,9.0538 L9.8251,12.9008 Z" id="Fill-8" fill="#FFFFFF"></path>
                        <g id="Group-12" transform="translate(33.000000, 18.635500)">
                            <mask id="mask-4" fill="white">
                                <use xlink:href="#path-3"></use>
                            </mask>
                            <g id="Clip-11"></g>
                            <path d="M5.5341,0.8615 L0.2641,0.8615 L0.2641,3.7925 L5.5341,3.7925 C6.3441,3.7925 7.0001,3.1365 7.0001,2.3275 C7.0001,1.5175 6.3441,0.8615 5.5341,0.8615" id="Fill-10" fill="#FFFFFF" mask="url(#mask-4)"></path>
                        </g>
                        <path d="M22.7064,23.2235 L20.1774,23.2235 L21.5864,21.8035 C21.8694,21.5195 21.8694,21.2355 21.8694,20.9515 C21.8394,20.6505 21.7424,20.3595 21.5864,20.0995 C21.1584,19.6735 20.4664,19.6735 20.0374,20.0995 L16.6584,23.3655 C16.2354,23.8005 16.2354,24.4925 16.6584,24.9275 C16.9394,25.2115 17.3614,25.3535 17.9254,25.3535 L20.3194,25.3535 L18.3494,27.6255 C18.0674,27.9095 18.0674,28.1935 18.0674,28.4765 C18.0974,28.7785 18.1934,29.0695 18.3494,29.3285 C18.6284,29.6195 18.9114,29.6195 19.1914,29.6195 C19.4914,29.5905 19.7804,29.4935 20.0374,29.3355 L23.4254,25.9275 C23.8104,25.5575 24.0154,25.0405 23.9894,24.5075 C23.9804,23.7915 23.5584,23.2235 22.7064,23.2235" id="Fill-13" fill="#FFFFFF"></path>
                        <g id="Group-17" transform="translate(4.000000, 8.635500)">
                            <mask id="mask-6" fill="white">
                                <use xlink:href="#path-5"></use>
                            </mask>
                            <g id="Clip-16"></g>
                            <path d="M25.6488,26.0685 L6.3248,26.0685 L6.3248,12.6135 C6.3248,10.0415 7.3308,7.6675 9.1448,5.6885 C12.5538,2.0045 18.3828,1.7105 22.1648,5.0325 C22.4008,5.2395 22.6258,5.4585 22.8378,5.6885 C24.6518,7.4695 25.6578,10.0415 25.6578,12.6135 L25.6488,26.0685 Z M29.9828,26.0685 L27.6278,26.0685 L27.6278,12.6935 C27.6278,6.2805 22.3588,0.9675 15.9998,0.9675 C9.6418,0.9675 4.3718,6.2805 4.3718,12.6935 L4.3718,26.0685 L2.0088,26.0685 C1.1988,26.0685 0.5428,26.7245 0.5428,27.5345 C0.5428,28.3435 1.1988,29.0005 2.0088,29.0005 L29.9908,29.0005 C30.8008,29.0005 31.4568,28.3435 31.4568,27.5345 C31.4568,26.7245 30.8008,26.0685 29.9908,26.0685 L29.9828,26.0685 Z" id="Fill-15" fill="#FFFFFF" mask="url(#mask-6)"></path>
                        </g>
                    </g>
                </g>
            </g>
        </g>
    </g>
</svg>