<?xml version="1.0" encoding="UTF-8"?>
<svg width="17px" height="17px" viewBox="0 0 17 17" version="1.1" xmlns="http://www.w3.org/2000/svg" xmlns:xlink="http://www.w3.org/1999/xlink">
    <!-- Generator: Sketch 51.3 (57544) - http://www.bohemiancoding.com/sketch -->
    <title>搜索</title>
    <desc>Created with Sketch.</desc>
    <defs></defs>
    <g id="page" stroke="none" stroke-width="1" fill="none" fill-rule="evenodd">
        <g id="用户管理" transform="translate(-1141.000000, -112.000000)" fill="#879BAA" fill-rule="nonzero">
            <g id="搜索-" transform="translate(944.000000, 104.000000)">
                <g id="搜索" transform="translate(197.000000, 8.000000)">
                    <path d="M15.8666113,14.1528686 L12.8619307,11.1298554 C14.9147223,8.12974793 14.345033,4.04825257 11.5503355,1.73303232 C8.75563809,-0.582187931 4.66496605,-0.361490817 2.132385,2.24114309 C-0.40019605,4.84377699 -0.532787203,8.9631613 1.82712051,11.7251979 C4.18702822,14.4872344 8.25493721,14.973747 11.1926637,12.8452954 L14.1734977,15.8443165 C14.6465683,16.2519156 15.3517548,16.2245111 15.7921659,15.7814129 C16.232577,15.3383147 16.2598153,14.6288256 15.854688,14.1528686 L15.8666113,14.1528686 Z M4.09827885,10.4940629 C2.38083684,8.76511399 2.38138914,5.96285306 4.09951254,4.23458953 C5.81763595,2.50632601 8.60290307,2.50632601 10.3210265,4.23458953 C12.0391499,5.96285306 12.0397022,8.76511399 10.3222602,10.4940629 C9.49707921,11.3247726 8.37759889,11.791502 7.21026951,11.791502 C6.04294014,11.791502 4.92345982,11.3247726 4.09827885,10.4940629 Z" id="Shape"></path>
                </g>
            </g>
        </g>
    </g>
</svg>