<?xml version="1.0" encoding="UTF-8"?>
<svg width="14px" height="14px" viewBox="0 0 14 14" version="1.1" xmlns="http://www.w3.org/2000/svg" xmlns:xlink="http://www.w3.org/1999/xlink">
    <!-- Generator: Sketch 51.3 (57544) - http://www.bohemiancoding.com/sketch -->
    <title>Shape</title>
    <desc>Created with Sketch.</desc>
    <defs></defs>
    <g id="page" stroke="none" stroke-width="1" fill="none" fill-rule="evenodd">
        <g id="项目管理-(分享项目)" transform="translate(-441.000000, -309.000000)" fill="#2387AA">
            <g id="Modal/Default" transform="translate(398.000000, 225.000000)">
                <g id="Alert/Link/Info" transform="translate(27.000000, 71.000000)">
                    <path d="M23,27 C19.1335937,27 16,23.8664062 16,20 C16,16.1335937 19.1335937,13 23,13 C26.8664062,13 30,16.1335937 30,20 C30,23.8664062 26.8664062,27 23,27 L23,27 Z M23,24.375 C23.2419922,24.375 23.4375,24.1794922 23.4375,23.9375 C23.4375,23.6955078 23.2419922,23.5 23,23.5 C22.7580078,23.5 22.5625,23.6955078 22.5625,23.9375 C22.5625,24.1794922 22.7580078,24.375 23,24.375 L23,24.375 Z M24.3056641,15.625 L23.4169922,15.625 L22.5419922,15.625 L21.6943359,15.625 C21.4523438,15.625 21.2568359,15.8205078 21.2568359,16.0625 C21.2568359,16.3044922 21.4523438,16.5 21.6943359,16.5 L22.5419922,16.5 L22.5419922,20.9091797 L21.6806641,20.9091797 C21.4386719,20.9091797 21.2431641,21.1046875 21.2431641,21.3466797 C21.2431641,21.5886719 21.4386719,21.7841797 21.6806641,21.7841797 L22.5419922,21.7841797 L22.9794922,21.7841797 C23.2214844,21.7841797 23.4169922,21.5886719 23.4169922,21.3466797 L23.4169922,16.5 L24.3056641,16.5 C24.5476563,16.5 24.7568359,16.3044922 24.7568359,16.0625 C24.7568359,15.8205078 24.5476563,15.625 24.3056641,15.625 L24.3056641,15.625 Z" id="Shape" transform="translate(23.000000, 20.000000) scale(1, -1) translate(-23.000000, -20.000000) "></path>
                </g>
            </g>
        </g>
    </g>
</svg>